<?xml version="1.0" standalone="no"?>
<!DOCTYPE svg PUBLIC "-//W3C//DTD SVG 20010904//EN"
 "http://www.w3.org/TR/2001/REC-SVG-20010904/DTD/svg10.dtd">
<svg version="1.0" xmlns="http://www.w3.org/2000/svg"
 width="472.000000pt" height="472.000000pt" viewBox="0 0 472.000000 472.000000"
 preserveAspectRatio="xMidYMid meet">
<metadata>
Created by potrace 1.14, written by Peter Selinger 2001-2017
</metadata>
<g transform="translate(0.000000,472.000000) scale(0.100000,-0.100000)"
fill="#000000" stroke="none">
<path d="M1930 4494 c-184 -118 -411 -263 -505 -323 -93 -60 -330 -211 -525
-336 -195 -124 -358 -229 -362 -233 -4 -4 28 -6 70 -5 508 10 857 18 1292 28
63 2 175 3 248 4 l132 1 0 540 c0 297 -3 540 -7 540 -5 -1 -159 -97 -343 -216z"/>
<path d="M2440 4170 l0 -540 133 -1 c72 -1 179 -2 237 -4 136 -3 612 -14 955
-21 149 -3 303 -7 343 -8 39 -1 72 1 72 5 0 5 -69 51 -195 129 -13 8 -71 45
-127 81 -57 37 -355 228 -663 424 -631 403 -656 419 -706 452 -19 12 -38 23
-42 23 -4 0 -7 -243 -7 -540z"/>
<path d="M1867 3463 c-1 0 -150 -4 -332 -8 -736 -14 -1169 -25 -1173 -30 -5
-5 111 -322 497 -1365 38 -102 99 -267 136 -367 37 -101 70 -183 74 -183 3 0
24 33 47 73 22 39 143 248 269 462 126 215 257 440 293 500 35 61 68 117 72
125 68 114 96 161 113 190 28 51 327 561 343 587 l14 23 -176 -3 c-96 -1 -176
-3 -177 -4z"/>
<path d="M2549 3388 c27 -46 58 -99 70 -118 11 -19 24 -42 28 -50 4 -8 37 -66
75 -128 37 -62 68 -114 68 -116 0 -2 24 -44 54 -93 29 -49 64 -109 78 -133 14
-25 162 -277 328 -560 166 -283 314 -535 328 -560 14 -25 38 -65 53 -89 l27
-44 10 35 c9 31 48 139 164 453 17 44 34 89 38 100 5 11 40 106 78 210 38 105
147 401 242 658 95 257 171 470 169 472 -5 4 -258 11 -689 20 -467 10 -706 15
-938 21 l-232 5 49 -83z"/>
<path d="M2220 3158 c-74 -128 -148 -255 -165 -284 -16 -28 -104 -177 -193
-330 -90 -154 -168 -286 -172 -294 -5 -8 -32 -52 -60 -98 -27 -46 -50 -85 -50
-87 0 -3 -110 -193 -159 -275 -17 -27 -224 -385 -227 -390 -2 -4 2305 -5 2328
-1 4 0 -59 112 -139 249 -80 136 -154 263 -165 282 -11 19 -57 98 -103 175
-98 166 -564 964 -673 1152 -43 73 -79 132 -82 132 -3 0 -66 -104 -140 -231z"/>
<path d="M321 2192 l-1 -864 78 7 c42 4 97 8 120 10 56 5 159 15 197 20 17 2
71 6 120 10 50 4 93 9 97 11 3 2 -11 50 -33 106 -21 57 -135 366 -254 688
-118 322 -219 594 -224 605 -5 11 -30 76 -55 145 l-45 125 0 -863z"/>
<path d="M4253 2662 c-79 -213 -217 -587 -307 -832 -91 -245 -164 -446 -163
-446 1 -1 43 -5 92 -9 109 -9 129 -10 225 -20 41 -4 89 -8 105 -10 17 -1 67
-6 113 -10 l82 -7 0 861 c0 473 -1 861 -2 861 -2 0 -67 -175 -145 -388z"/>
<path d="M1245 1230 c-3 -5 52 -67 284 -319 119 -130 99 -108 211 -231 52 -58
116 -127 142 -155 25 -27 59 -63 73 -80 15 -16 46 -50 69 -75 22 -25 86 -94
141 -155 55 -60 121 -132 148 -160 l48 -50 57 61 c31 34 91 99 133 145 42 46
87 95 100 110 22 23 148 161 208 228 27 29 92 100 228 247 50 54 101 110 113
124 12 14 61 68 109 120 146 157 170 185 171 190 0 7 -2231 7 -2235 0z"/>
<path d="M937 1223 c-1 0 -40 -4 -87 -8 -47 -4 -98 -9 -115 -10 -16 -1 -73 -6
-125 -10 -52 -4 -100 -10 -107 -14 -7 -4 28 -32 90 -71 56 -36 150 -96 209
-135 59 -38 150 -97 203 -130 53 -33 144 -91 203 -129 375 -242 662 -424 662
-420 0 3 -6 11 -12 18 -7 7 -50 53 -94 102 -104 113 -111 121 -219 239 -49 54
-103 112 -119 129 -15 17 -45 49 -65 71 -20 22 -63 69 -96 105 -262 288 -243
270 -287 267 -22 -1 -40 -3 -41 -4z"/>
<path d="M3605 1123 c-54 -59 -104 -113 -109 -118 -6 -6 -54 -57 -106 -115
-52 -58 -98 -106 -102 -108 -5 -2 -8 -7 -8 -12 0 -4 -24 -32 -53 -61 -71 -73
-361 -390 -371 -408 -5 -8 4 -5 20 6 33 23 80 53 424 273 139 89 284 183 322
210 39 28 75 50 79 50 5 0 66 37 136 83 70 46 157 102 193 125 36 23 96 61
134 85 38 24 65 47 60 49 -5 3 -52 9 -104 12 -52 4 -111 9 -130 11 -19 2 -69
6 -110 9 -41 4 -98 9 -126 12 l-51 5 -98 -108z"/>
</g>
</svg>
